<svg id="_001-hotel-1" data-name="001-hotel-1" xmlns="http://www.w3.org/2000/svg" width="32.733" height="32.733" viewBox="0 0 32.733 32.733">
  <g id="Сгруппировать_15" data-name="Сгруппировать 15" transform="translate(6.171 9.317)">
    <g id="Сгруппировать_14" data-name="Сгруппировать 14">
      <path id="Контур_4" data-name="Контур 4" d="M100.226,145.733H97.157a.639.639,0,0,0-.639.639v3.58a.639.639,0,0,0,.639.639h3.069a.639.639,0,0,0,.639-.639v-3.58A.639.639,0,0,0,100.226,145.733Zm-.639,3.58H97.8v-2.3h1.79Z" transform="translate(-96.518 -145.733)"/>
    </g>
  </g>
  <g id="Сгруппировать_17" data-name="Сгруппировать 17" transform="translate(6.171 16.477)">
    <g id="Сгруппировать_16" data-name="Сгруппировать 16">
      <path id="Контур_5" data-name="Контур 5" d="M100.226,257.733H97.157a.639.639,0,0,0-.639.639v3.58a.639.639,0,0,0,.639.639h3.069a.639.639,0,0,0,.639-.639v-3.58A.639.639,0,0,0,100.226,257.733Zm-.639,3.58H97.8v-2.3h1.79Z" transform="translate(-96.518 -257.733)"/>
    </g>
  </g>
  <g id="Сгруппировать_19" data-name="Сгруппировать 19" transform="translate(6.171 23.638)">
    <g id="Сгруппировать_18" data-name="Сгруппировать 18">
      <path id="Контур_6" data-name="Контур 6" d="M100.226,369.733H97.157a.639.639,0,0,0-.639.639v3.58a.639.639,0,0,0,.639.639h3.069a.639.639,0,0,0,.639-.639v-3.58A.639.639,0,0,0,100.226,369.733Zm-.639,3.58H97.8v-2.3h1.79Z" transform="translate(-96.518 -369.733)"/>
    </g>
  </g>
  <g id="Сгруппировать_21" data-name="Сгруппировать 21" transform="translate(22.855 23.638)">
    <g id="Сгруппировать_20" data-name="Сгруппировать 20">
      <path id="Контур_7" data-name="Контур 7" d="M361.205,369.733h-3.069a.639.639,0,0,0-.639.639v3.58a.639.639,0,0,0,.639.639h3.069a.639.639,0,0,0,.639-.639v-3.58A.639.639,0,0,0,361.205,369.733Zm-.639,3.58h-1.79v-2.3h1.79Z" transform="translate(-357.497 -369.733)"/>
    </g>
  </g>
  <g id="Сгруппировать_23" data-name="Сгруппировать 23" transform="translate(11.732 9.317)">
    <g id="Сгруппировать_22" data-name="Сгруппировать 22">
      <path id="Контур_8" data-name="Контур 8" d="M187.219,145.733H184.15a.639.639,0,0,0-.639.639v3.58a.639.639,0,0,0,.639.639h3.069a.639.639,0,0,0,.639-.639v-3.58A.639.639,0,0,0,187.219,145.733Zm-.639,3.58h-1.79v-2.3h1.79Z" transform="translate(-183.511 -145.733)"/>
    </g>
  </g>
  <g id="Сгруппировать_25" data-name="Сгруппировать 25" transform="translate(17.294 9.317)">
    <g id="Сгруппировать_24" data-name="Сгруппировать 24">
      <path id="Контур_9" data-name="Контур 9" d="M274.211,145.733h-3.069a.639.639,0,0,0-.639.639v3.58a.639.639,0,0,0,.639.639h3.069a.639.639,0,0,0,.639-.639v-3.58A.639.639,0,0,0,274.211,145.733Zm-.639,3.58h-1.79v-2.3h1.79Z" transform="translate(-270.503 -145.733)"/>
    </g>
  </g>
  <g id="Сгруппировать_27" data-name="Сгруппировать 27" transform="translate(11.732 16.477)">
    <g id="Сгруппировать_26" data-name="Сгруппировать 26">
      <path id="Контур_10" data-name="Контур 10" d="M187.219,257.733H184.15a.639.639,0,0,0-.639.639v3.58a.639.639,0,0,0,.639.639h3.069a.639.639,0,0,0,.639-.639v-3.58A.639.639,0,0,0,187.219,257.733Zm-.639,3.58h-1.79v-2.3h1.79Z" transform="translate(-183.511 -257.733)"/>
    </g>
  </g>
  <g id="Сгруппировать_29" data-name="Сгруппировать 29" transform="translate(17.294 16.477)">
    <g id="Сгруппировать_28" data-name="Сгруппировать 28">
      <path id="Контур_11" data-name="Контур 11" d="M274.211,257.733h-3.069a.639.639,0,0,0-.639.639v3.58a.639.639,0,0,0,.639.639h3.069a.639.639,0,0,0,.639-.639v-3.58A.639.639,0,0,0,274.211,257.733Zm-.639,3.58h-1.79v-2.3h1.79Z" transform="translate(-270.503 -257.733)"/>
    </g>
  </g>
  <g id="Сгруппировать_31" data-name="Сгруппировать 31" transform="translate(22.855 9.317)">
    <g id="Сгруппировать_30" data-name="Сгруппировать 30">
      <path id="Контур_12" data-name="Контур 12" d="M361.205,145.733h-3.069a.639.639,0,0,0-.639.639v3.58a.639.639,0,0,0,.639.639h3.069a.639.639,0,0,0,.639-.639v-3.58A.639.639,0,0,0,361.205,145.733Zm-.639,3.58h-1.79v-2.3h1.79Z" transform="translate(-357.497 -145.733)"/>
    </g>
  </g>
  <g id="Сгруппировать_33" data-name="Сгруппировать 33" transform="translate(22.855 16.477)">
    <g id="Сгруппировать_32" data-name="Сгруппировать 32">
      <path id="Контур_13" data-name="Контур 13" d="M361.205,257.733h-3.069a.639.639,0,0,0-.639.639v3.58a.639.639,0,0,0,.639.639h3.069a.639.639,0,0,0,.639-.639v-3.58A.639.639,0,0,0,361.205,257.733Zm-.639,3.58h-1.79v-2.3h1.79Z" transform="translate(-357.497 -257.733)"/>
    </g>
  </g>
  <g id="Сгруппировать_35" data-name="Сгруппировать 35">
    <g id="Сгруппировать_34" data-name="Сгруппировать 34">
      <path id="Контур_14" data-name="Контур 14" d="M32.094,31.455H29.7V6.653a.639.639,0,0,0-.639-.639H25.508V3.708a.639.639,0,0,0-.639-.639H21.353V.639A.639.639,0,0,0,20.714,0H12.019a.639.639,0,0,0-.639.639V3.069H7.865a.639.639,0,0,0-.639.639V6.014H3.677a.639.639,0,0,0-.639.639v24.8H.639a.639.639,0,1,0,0,1.279H32.094a.639.639,0,1,0,0-1.279ZM12.659,1.279h7.416v1.79H12.659Zm6.393,30.176H14.628l4.424-4.424Zm0-6.228c-.014.012-.028.024-.042.038l-5.329,5.329v-2.71l4.1-4.1h1.269Zm-5.37.848V23.783h2.292Zm14.736,5.379H20.33V23.783h.224a.639.639,0,1,0,0-1.279H12.179a.639.639,0,1,0,0,1.279H12.4v7.672H4.316V7.292h7.1a.639.639,0,1,0,0-1.279H8.5V4.347H24.229V6.014H16.464a.639.639,0,1,0,0,1.279H28.417V31.455Z"/>
    </g>
  </g>
  <g id="Сгруппировать_37" data-name="Сгруппировать 37" transform="translate(13.267 6.013)">
    <g id="Сгруппировать_36" data-name="Сгруппировать 36">
      <path id="Контур_15" data-name="Контур 15" d="M208.6,94.247a.639.639,0,1,0,.187.452A.644.644,0,0,0,208.6,94.247Z" transform="translate(-207.51 -94.06)"/>
    </g>
  </g>
</svg>
